<svg width="1200" height="800" viewBox="0 0 1200 800" fill="none" xmlns="http://www.w3.org/2000/svg" preserveAspectRatio="xMidYMid slice">
  <defs>
    <linearGradient id="g1" x1="0" x2="1">
      <stop offset="0%" stop-color="#06b6d4" stop-opacity="0.15"/>
      <stop offset="100%" stop-color="#7c3aed" stop-opacity="0.12"/>
    </linearGradient>
    <linearGradient id="g2" x1="0" x2="1">
      <stop offset="0%" stop-color="#60a5fa" stop-opacity="0.18"/>
      <stop offset="100%" stop-color="#34d399" stop-opacity="0.12"/>
    </linearGradient>
  </defs>

  <rect width="1200" height="800" rx="32" fill="url(#g1)"/>

  <!-- stylized cityscape -->
  <g transform="translate(80,120)">
    <rect x="0" y="220" width="1100" height="360" rx="18" fill="#fff" opacity="0.7"/>
    <!-- buildings -->
    <rect x="60" y="80" width="120" height="200" rx="8" fill="#e6eefc"/>
    <rect x="200" y="40" width="160" height="240" rx="8" fill="#e7fdf6"/>
    <rect x="420" y="20" width="220" height="260" rx="8" fill="#f3e8ff"/>
    <rect x="680" y="60" width="140" height="220" rx="8" fill="#fff7ed"/>
    <rect x="860" y="100" width="90" height="180" rx="8" fill="#ecfeff"/>

    <!-- road and vehicles -->
    <rect x="40" y="300" width="1040" height="24" rx="12" fill="#0f172a" opacity="0.08"/>
    <rect x="120" y="320" width="80" height="40" rx="8" fill="#ef4444"/>
    <rect x="320" y="320" width="120" height="40" rx="8" fill="#3b82f6"/>

    <!-- map marker -->
    <g transform="translate(540,180)">
      <circle cx="0" cy="0" r="42" fill="url(#g2)"/>
      <path d="M0 -26 C10 -26 18 -18 18 -8 C18 10 0 30 0 30 C0 30 -18 10 -18 -8 C-18 -18 -10 -26 0 -26 Z" fill="#fff"/>
      <circle cx="0" cy="-6" r="8" fill="#7c3aed"/>
    </g>

    <!-- subtle waves -->
    <path d="M0 560 C200 500 400 620 600 560 C800 500 1000 620 1200 560" stroke="#60a5fa" stroke-width="6" opacity="0.06" fill="none"/>
  </g>

</svg>
